<?xml version="1.0" standalone="no"?>
<!DOCTYPE svg PUBLIC "-//W3C//DTD SVG 20010904//EN"
 "http://www.w3.org/TR/2001/REC-SVG-20010904/DTD/svg10.dtd">
<svg version="1.0" xmlns="http://www.w3.org/2000/svg"
 width="512.000000pt" height="512.000000pt" viewBox="0 0 512.000000 512.000000"
 preserveAspectRatio="xMidYMid meet">
<metadata>
Created by potrace 1.11, written by Peter Selinger 2001-2013
</metadata>
<g transform="translate(0.000000,512.000000) scale(0.100000,-0.100000)"
fill="#000000" stroke="none">
<path d="M1485 4791 c-364 -7 -388 -11 -440 -73 -23 -27 -25 -38 -25 -122 0
-51 -3 -134 -6 -183 l-7 -91 -306 -7 c-168 -3 -320 -11 -337 -16 -17 -5 -42
-21 -55 -35 l-24 -26 0 -361 c0 -404 7 -467 69 -649 54 -158 106 -227 316
-424 136 -126 266 -211 407 -263 169 -63 308 -140 508 -282 176 -125 321 -338
380 -560 49 -188 55 -250 55 -589 l0 -317 -112 -33 c-62 -18 -208 -64 -325
-102 -305 -100 -333 -124 -333 -289 0 -80 3 -100 19 -121 l19 -24 1272 0 1272
1 19 24 c16 19 19 40 19 120 0 165 -28 189 -333 289 -117 38 -263 84 -324 102
l-113 33 0 317 c0 339 6 401 55 589 33 123 88 237 163 338 90 120 127 158 217
222 200 142 339 219 508 282 141 52 271 137 407 263 210 197 262 266 316 424
62 182 69 245 69 649 l0 361 -24 26 c-13 14 -38 30 -55 35 -17 5 -169 13 -337
16 l-306 7 -7 91 c-3 49 -6 132 -6 183 0 84 -2 95 -25 123 -15 17 -50 39 -82
51 -55 21 -68 21 -1117 24 -584 2 -1209 1 -1391 -3z m2160 -680 c44 -12 108
-35 143 -51 l62 -29 0 -160 c0 -152 -1 -161 -19 -161 -11 0 -37 15 -59 33
-141 118 -277 164 -407 137 -117 -24 -188 -79 -240 -183 -71 -144 -71 -339 0
-484 42 -84 94 -134 173 -163 153 -57 288 -29 449 95 40 30 79 55 88 55 13 0
15 -21 13 -161 l-3 -162 -95 -38 c-123 -49 -225 -69 -349 -69 -444 0 -699 273
-678 725 8 169 39 270 117 385 90 131 231 218 408 250 82 15 308 4 397 -19z
m-1725 -376 l235 -369 3 372 2 372 155 0 155 0 0 -655 0 -655 -166 2 -166 3
-272 439 -271 439 -3 -442 -2 -441 -155 0 -155 0 0 655 0 655 202 -2 202 -3
236 -370z"/>
</g>
</svg>
